<?xml version="1.0" encoding="utf-8"?>
<!-- Generator: Adobe Illustrator 21.0.2, SVG Export Plug-In . SVG Version: 6.00 Build 0)  -->
<svg version="1.1" id="Layer_1" xmlns="http://www.w3.org/2000/svg" xmlns:xlink="http://www.w3.org/1999/xlink" x="0px" y="0px"
	 viewBox="0 0 175 175" style="enable-background:new 0 0 175 175;" xml:space="preserve">
<style type="text/css">
	.st0{fill:#0095C7;}
</style>
<path class="st0" d="M167.7,60.7c-1.2,1.1-2.4,2.2-3.6,3.4c-5.9-6.1-13.1-9.4-21.6-9.3c-8.5,0-15.7,3.3-21.6,9.3
	c-1.2-1.1-2.4-2.2-3.6-3.3c1.2-1.4,2.6-2.6,4-3.7c1.9-1.4,3.8-2.7,5.9-3.7c2.3-1.1,4.6-2,7.1-2.6c2.4-0.6,4.8-0.9,7.2-1
	c3.3-0.1,6.6,0.3,9.9,1.2c3.3,0.9,6.5,2.3,9.4,4.1c1.9,1.2,3.6,2.5,5.2,4C166.6,59.6,167.1,60.1,167.7,60.7
	C167.7,60.7,167.7,60.7,167.7,60.7z"/>
<path class="st0" d="M127.9,71c-1.2-1.1-2.4-2.2-3.6-3.3c8.3-9.8,25.7-11.7,36.4,0c-1.2,1.1-2.4,2.2-3.6,3.3
	c-4-4.2-8.8-6.4-14.6-6.4C136.7,64.6,131.9,66.8,127.9,71z"/>
<path class="st0" d="M131.2,74.8c5.9-7,16.7-7.1,22.6,0c-1.2,1-2.5,2.1-3.7,3.1c-2-2.3-4.6-3.4-7.5-3.4c-3,0-5.5,1.1-7.6,3.4
	C133.7,76.9,132.5,75.9,131.2,74.8z"/>
<path class="st0" d="M8.5,79.2h7.3l5.7,25.1l7-25.1h6.2l7.1,25.1l5.6-25.1h7.4l-8.8,39.2h-7.2L31.5,93l-7.1,25.4h-7.1L8.5,79.2z"/>
<path class="st0" d="M72.6,79.2h7.6l15.1,39.2h-7.8l-3.1-8.1h-16l-3.2,8.1h-7.8L72.6,79.2z M76.4,89.6L71.1,103h10.5L76.4,89.6z"/>
<path class="st0" d="M97.2,79.2h21.7v7.4h-7.2v31.9h-7.6V86.5h-7V79.2z"/>
<g>
	<path class="st0" d="M156.1,84.9c-3.8-3.8-8.4-5.7-13.6-5.7c-3.5,0-6.7,0.9-9.8,2.6c-3,1.8-5.4,4.1-7.1,7.1c-1.7,3-2.6,6.3-2.6,9.9
		c0,5.3,1.9,9.9,5.6,13.8c3.7,3.9,8.4,5.8,14,5.8c5.4,0,9.9-1.9,13.7-5.7c3.8-3.8,5.6-8.4,5.6-13.8
		C161.8,93.4,159.9,88.7,156.1,84.9z M152.5,108.9c-2.7,2.7-6.1,4.1-10,4.1c-4.1,0-7.5-1.4-10.2-4.3c-1.6-1.7-2.8-3.6-3.4-5.7l1.8-1
		c0.5,1.9,1.5,3.7,3.1,5.3c2.3,2.4,5.2,3.6,8.8,3.6c3.4,0,6.2-1.2,8.6-3.5c0.9-0.9,1.6-1.9,2.2-2.9c-2,0.1-4.1,0.1-6.1,0.2
		c0.1-0.2,0.6-2-0.5-3.7c-1.2-1.9-3.4-2-3.6-2c-2.4,0-3.7,1.9-3.7,2c-1.1,1.7-0.5,3.6-0.4,3.8c-1.1,0.1-2,0-2.6-0.1
		c-0.8-0.1-1.2-0.3-1.5-0.6c-0.3-0.3-0.4-0.6-0.4-0.9c0-1.6,0-2.8,0-3.2c0-0.2,0-0.5,0.1-0.8c0-0.1,0-0.1,0.1-0.3
		c0.1-0.4,0.2-0.6,0.2-0.7c0.1-0.3,0.3-0.7,0.8-1.3c0.2-0.3,0.4-0.5,0.5-0.6c1.5-1.5,3.3-1.4,7.2-2.4c0.6-0.2,1-0.3,1.4-0.4
		c1-1,2.4-2.1,4.2-3.1c0.6-0.3,1.1-0.6,1.6-0.8c0,0,0,0,0,0c0.9-0.4,1.5-0.7,2-0.9c2.7,2.7,4,6.1,4,10
		C156.6,102.8,155.2,106.2,152.5,108.9z M139.6,103.5c0-1.9,1.6-3.5,3.5-3.5s3.5,1.6,3.5,3.5s-1.6,3.5-3.5,3.5
		S139.6,105.4,139.6,103.5z"/>
	<g>
		<path class="st0" d="M153.6,93.9c-0.5-1.2-1.2-2.3-2.2-3.4c-1.5,0.6-3.2,1.6-4.8,3.1C146.7,93.6,148.6,94.5,153.6,93.9z"/>
	</g>
</g>
</svg>
